<?xml version="1.0" ?><svg viewBox="0 0 50 50" xmlns="http://www.w3.org/2000/svg"><defs><style>.a{fill:#915e3a;}.b{fill:#bf8256;}.c,.d{fill:none;stroke-linecap:round;stroke-linejoin:round;stroke-width:1.25px;}.c{stroke:#724f3d;}.d{stroke:#45413c;}.e{fill:#debb7e;}.f{fill:#f0d5a8;}.g{fill:#b89558;}</style></defs><title/><path class="a" d="M16.477,5.6C16.3,5.713-2.478,17.737,4.259,35.658c3.326,8.847,12.422,10.419,21.539,8.46A33.669,33.669,0,0,0,36.24,39.95c7.96-4.857,13.473-12.26,9.793-20.966C38.579,1.35,16.682,5.561,16.477,5.6Z"/><path class="b" d="M18.324,12.224a1.558,1.558,0,0,1,.637-.258c2.676-.434,20.487-2.735,28.159,11.28a14.355,14.355,0,0,0-1.087-4.262C38.579,1.35,16.682,5.561,16.477,5.6,16.3,5.713-2.478,17.737,4.259,35.658a15.315,15.315,0,0,0,.984,2.081C2.876,23.439,16.141,13.717,18.324,12.224Z"/><path class="c" d="M10.1,35.43c-4.047-5.9-4.348-17.053.414-24.736"/><path class="c" d="M16.374,30.825c-2.865-4.086-5.531-15.162-1.258-24.259"/><path class="c" d="M41.644,22.838c-1.13-7.066-8.589-15.36-17.333-17.653"/><path class="c" d="M33.92,23.822c-.735-4.936-6.429-14.8-15.791-18.458"/><path class="d" d="M16.477,5.6C16.3,5.713-2.478,17.737,4.259,35.658c3.326,8.847,12.422,10.419,21.539,8.46A33.669,33.669,0,0,0,36.24,39.95c7.96-4.857,13.473-12.26,9.793-20.966C38.579,1.35,16.682,5.561,16.477,5.6Z"/><path class="e" d="M30.186,24.784a55.527,55.527,0,0,0-10.442,4.168C13.264,32.339,7.892,36.21,7.057,40.265c4.34,4.725,11.528,5.4,18.741,3.853A33.669,33.669,0,0,0,36.24,39.95c6.3-3.843,11.044-9.283,10.937-15.7C43.779,21.887,37.218,22.778,30.186,24.784Z"/><path class="f" d="M20.986,33.111a55.554,55.554,0,0,1,10.442-4.168C37.461,27.222,43.14,26.329,46.78,27.6a12.751,12.751,0,0,0,.4-3.349c-3.4-2.365-9.959-1.474-16.991.532a55.527,55.527,0,0,0-10.442,4.168C13.264,32.339,7.892,36.21,7.057,40.265a12.665,12.665,0,0,0,2.184,1.877C11.211,38.92,15.734,35.856,20.986,33.111Z"/><path class="d" d="M30.186,24.784a55.527,55.527,0,0,0-10.442,4.168C13.264,32.339,7.892,36.21,7.057,40.265c4.34,4.725,11.528,5.4,18.741,3.853A33.669,33.669,0,0,0,36.24,39.95c6.3-3.843,11.044-9.283,10.937-15.7C43.779,21.887,37.218,22.778,30.186,24.784Z"/><circle class="g" cx="37.098" cy="30.029" r="1.333"/><circle class="g" cx="35.824" cy="34.029" r="1.333"/><circle class="g" cx="41.432" cy="29.735" r="1.333"/></svg>